HIERARCHY
ROOT Hips
{
	OFFSET	0.00	0.00	0.00
	CHANNELS 6 Xposition Yposition Zposition Zrotation Xrotation Yrotation
	JOINT Spine
	{
		OFFSET	 0.00	0.01	 0.00
		CHANNELS 3 Zrotation Xrotation Yrotation
		JOINT Spine1
		{
			OFFSET	 0.00	 2.45913012437421	 0.00
			CHANNELS 3 Zrotation Xrotation Yrotation
            JOINT Neck
            {
                OFFSET	 0.00	 2.48462964506057	 0.00
                CHANNELS 3 Zrotation Xrotation Yrotation
                JOINT Head
                {
                    OFFSET	 0.00	 0.927524780924562	 0.00
                    CHANNELS 3 Zrotation Xrotation Yrotation
                    End Site 
                    {
                        OFFSET	 0.00	 1.14999962169752	 0.00
                    }
                }
            }
			JOINT LeftShoulder
			{
				OFFSET	 0.00	 2.48462964506057	 0.00
				CHANNELS 3 Zrotation Xrotation Yrotation
				JOINT LeftUpArm
				{
					OFFSET	 0.00	 1.24881979654096	 0.00
					CHANNELS 3 Zrotation Xrotation Yrotation
					JOINT LeftForeArm
					{
						OFFSET	 0.00	2.59758046908119	 0.00
						CHANNELS 3 Zrotation Xrotation Yrotation
						JOINT LeftHand
						{
							OFFSET	 0.00	2.45542024364365	 0.00
							CHANNELS 3 Zrotation Xrotation Yrotation
							JOINT LeftHandThumb 
							{
								OFFSET	 0.00	0.00	 0.00
								CHANNELS 3 Zrotation Xrotation Yrotation
								End Site
								{
									OFFSET	 0.00	0.00	1.00000003353624
								}
							}
							JOINT L_Wrist_End 
							{
								OFFSET	 0.00	0.99999967115358	 0.00
								CHANNELS 3 Zrotation Xrotation Yrotation
								End Site 
								{
									OFFSET	 0.00	 0.00	 0.00
								}
							}
						}
					}
				}
			}
			JOINT RightShoulder
			{
				OFFSET	 0.00	 2.48462964506057	 0.00
				CHANNELS 3 Zrotation Xrotation Yrotation
				JOINT RightUpArm
				{
					OFFSET	 0.00	 1.24881979654096	 0.00
					CHANNELS 3 Zrotation Xrotation Yrotation
					JOINT RightForeArm
					{
						OFFSET	 0.00	2.59758046908119	 0.00
						CHANNELS 3 Zrotation Xrotation Yrotation
						JOINT RightHand
						{
							OFFSET	 0.00	2.45542024364365	 0.00
							CHANNELS 3 Zrotation Xrotation Yrotation
							JOINT RightHandThumb 
							{
								OFFSET	 0.00	0.00	 0.00
								CHANNELS 3 Zrotation Xrotation Yrotation
								End Site
								{
									OFFSET	 0.00	0.00	1.00000003353624
								}
							}
							JOINT R_Wrist_End 
							{
								OFFSET	 0.00	0.99999967115358	 0.00
								CHANNELS 3 Zrotation Xrotation Yrotation
								End Site 
								{
									OFFSET	 0.00	 0.00	 0.00
								}
							}
						}
					}
				}
			}
		}
	}
	JOINT LeftUpLeg
	{
		OFFSET	 1.2719394002717	 0.00	 0.00
		CHANNELS 3 Zrotation Xrotation Yrotation
		JOINT LeftLowLeg
		{
			OFFSET	 0.00	-4.3429100912261	 0.00
			CHANNELS 3 Zrotation Xrotation Yrotation
			JOINT LeftFoot
			{
				OFFSET	 0.00	-4.48767017425826	 0.00
				CHANNELS 3 Zrotation Xrotation Yrotation
				JOINT LeftToeBase
                {
                    OFFSET	 0.00	0.00	 1.51507020887566
                    CHANNELS 3 Zrotation Xrotation Yrotation
                    End Site 
                    {
                        OFFSET	 0.00	0.00	 0.75000010571191
                    }
                }
			}
		}
	}
	JOINT RightUpLeg
	{
		OFFSET	 -1.2719393604653	 0.00	 0.00
		CHANNELS 3 Zrotation Xrotation Yrotation
		JOINT RightLowLeg
		{
			OFFSET	 0.00	-4.3429100912261	 0.00
			CHANNELS 3 Zrotation Xrotation Yrotation
			JOINT RightFoot
			{
				OFFSET	 0.00	-4.48767017425826	 0.00
				CHANNELS 3 Zrotation Xrotation Yrotation
				JOINT RightToeBase
                {
                    OFFSET	 0.00	0.00	 1.51507020887566
                    CHANNELS 3 Zrotation Xrotation Yrotation
                    End Site 
                    {
                        OFFSET	 0.00	0.00	 0.749999965609858
                    }
                }   
			}
		}
	}
}
MOTION 
Frames:	11 
Frame Time: 0.02 
 0.8851570129394531 6.901890258789063 9.37291015625 -149.221 82.2377 507.323 1.97232 -6.49204 0.848503 4.02044 -8.26315 1.37257 -42.6816 45.5728 37.3966 91.424 -61.4725 -275.065 -111.5197 -6.55891 -14.4304 9.64342 16.3496 -25.285 0.0 8.59253 0.0 21.9282 -2.60887 22.8534 0.0 0.0 0.0 0.0 0.0 0.0 108.231705 -4.27378 9.88843 -1.78857 -0.879596 52.6885 0.0 13.5287 0.0 -18.1585 -13.7418 -46.484 0.0 0.0 0.0 0.0 0.0 0.0 2.07968 -6.03613 -3.6358 0.0 6.15613 0.0 -7.32519 4.7096004 14.678 0.0 -37.3612 0.0 8.13599 -7.44132 -0.313101 0.0 11.0906 0.0 9.54833 5.6963396 -14.9585 0.0 -43.287598 0.0 
  0.8860330200195312 6.90489013671875 9.372880249023437 -149.133 82.2844 507.124 1.9651 -6.48776 0.899056 3.93885 -8.34655 1.43067 -42.5415 45.6824 37.2455 91.4508 -61.3902 -274.986 -111.5363 -6.5632 -14.5678 9.66932 16.2733 -25.0086 0.0 8.74266 0.0 21.6592 -2.62217 23.1527 0.0 0.0 0.0 0.0 0.0 0.0 108.2726 -4.2906 9.90622 -1.74766 -0.832126 52.7175 0.0 13.3727 0.0 -18.2133 -13.7589 -46.6012 0.0 0.0 0.0 0.0 0.0 0.0 2.06554 -5.98812 -3.60533 0.0 6.15185 0.0 -7.31164 4.7151003 14.755 0.0 -37.3655 0.0 8.11781 -7.39583 -0.312446 0.0 11.0543 0.0 9.4945 5.75702 -14.8399 0.0 -43.316902 0.0 
  0.886541976928711 6.907979736328125 9.372860107421875 -149.258 82.2689 507.149 1.94697 -6.49533 0.950007 3.92072 -8.472 1.49177 -42.5084 45.6988 37.1977 91.5543 -61.3806 -274.869 -111.5621 -6.61516 -14.5978 9.72503 16.2149 -24.558 0.0 8.75085 0.0 21.5145 -2.64164 22.9757 0.0 0.0 0.0 0.0 0.0 0.0 108.2975 -4.32542 9.87878 -1.74518 -0.830717 52.7443 0.0 13.2258 0.0 -18.2186 -13.794 -46.6849 0.0 0.0 0.0 0.0 0.0 0.0 2.06002 -6.01694 -3.63873 0.0 6.15998 0.0 -7.29929 4.7065 14.8766 0.0 -37.3535 0.0 8.1212 -7.43245 -0.176738 0.0 11.0472 0.0 9.56143 5.7509804 -14.8137 0.0 -43.482597 0.0 
  0.8868219757080078 6.908469848632812 9.372880249023437 -149.749 82.1951 507.512 1.91619 -6.64438 0.98859 3.92587 -8.52616 1.53894 -42.4919 45.7161 37.1475 91.6308 -61.393 -274.786 -111.556 -6.67142 -14.6048 9.77528 16.078 -24.4745 0.0 8.78336 0.0 21.2585 -2.90982 22.7608 0.0 0.0 0.0 0.0 0.0 0.0 108.3251 -4.34513 9.91024 -1.7434 -0.7951 52.8852 0.0 13.1001 0.0 -18.1941 -13.7419 -46.9674 0.0 0.0 0.0 0.0 0.0 0.0 2.04715 -6.07339 -3.71477 0.0 6.11739 0.0 -7.30408 4.6940002 15.0598 0.0 -37.3547 0.0 8.12719 -7.55233 0.051579 0.0 11.0909 0.0 9.57049 5.7332096 -14.833 0.0 -43.516197 0.0 
  0.8867690277099609 6.907739868164063 9.372789916992188 -150.218 82.112 507.871 1.87802 -6.82624 1.01153 3.97135 -8.54974 1.56947 -42.5278 45.7825 37.0861 91.7308 -61.4313 -274.661 -111.604004 -6.71807 -14.6267 9.89513 15.9683 -24.4222 0.0 8.64964 0.0 21.1603 -3.06949 22.5824 0.0 0.0 0.0 0.0 0.0 0.0 108.344696 -4.36173 10.0038 -1.75298 -0.749514 53.0246 0.0 13.0151 0.0 -18.3554 -13.8124 -47.0697 0.0 0.0 0.0 0.0 0.0 0.0 2.04335 -6.13815 -3.73354 0.0 6.0828 0.0 -7.30846 4.6904 15.1704 0.0 -37.3741 0.0 8.1394 -7.64779 0.315847 0.0 11.0869 0.0 9.57973 5.74549 -14.8959 0.0 -43.4016 0.0 
  0.8867120361328125 6.905789794921875 9.372550048828124 -150.635 82.0473 508.205 1.85701 -6.99416 1.02099 3.98686 -8.54978 1.5828 -42.5923 45.7595 37.0995 91.792 -61.4967 -274.611 -111.6241 -6.79009 -14.6865 10.001 15.8907 -24.3951 0.0 8.44691 0.0 21.1008 -3.14914 22.7019 0.0 0.0 0.0 0.0 0.0 0.0 108.3745 -4.35905 10.0768 -1.79901 -0.754223 53.0469 0.0 12.8923 0.0 -18.4507 -13.756 -47.0567 0.0 0.0 0.0 0.0 0.0 0.0 2.03327 -6.16925 -3.80169 0.0 6.03486 0.0 -7.3093 4.6695995 15.2956 0.0 -37.3478 0.0 8.14955 -7.70732 0.621965 0.0 11.0691 0.0 9.63292 5.72626 -15.0339 0.0 -43.2683 0.0 
  0.8866300201416015 6.902579956054687 9.372080078125 -151.037 82.0084 508.525 1.83399 -7.14594 1.04357 3.99425 -8.53319 1.60932 -42.5915 45.7568 37.0173 91.8398 -61.5752 -274.572 -111.617905 -6.85574 -14.7842 10.0896 15.7943 -24.099 0.0 8.27473 0.0 21.0523 -3.31651 22.7507 0.0 0.0 0.0 0.0 0.0 0.0 108.3884 -4.45287 10.1685 -1.79064 -0.6956 53.1211 0.0 12.9034 0.0 -18.6456 -13.8886 -47.2582 0.0 0.0 0.0 0.0 0.0 0.0 2.01348 -6.17135 -3.79338 0.0 5.98609 0.0 -7.26947 4.6737003 15.3607 0.0 -37.297 0.0 8.15165 -7.73264 0.928573 0.0 11.0427 0.0 9.66656 5.6864796 -15.2006 0.0 -43.1991 0.0 
  0.8866059875488281 6.900380249023438 9.371890258789062 -151.109 81.9992 508.598 1.82541 -7.22338 1.01728 4.00078 -8.52889 1.58394 -42.6246 45.7359 36.9869 91.9524 -61.6425 -274.454 -111.6511 -6.91722 -14.8203 10.2583 15.7311 -24.3166 0.0 7.99522 0.0 21.0315 -3.41216 23.1144 0.0 0.0 0.0 0.0 0.0 0.0 108.4186 -4.51261 10.2046 -1.82018 -0.689887 53.2147 0.0 12.9059 0.0 -18.666 -13.8534 -47.4648 0.0 0.0 0.0 0.0 0.0 0.0 2.00663 -6.16304 -3.89377 0.0 5.97461 0.0 -7.28359 4.6562996 15.4343 0.0 -37.3217 0.0 8.15586 -7.71555 1.03162 0.0 11.0114 0.0 9.63723 5.6986504 -15.2917 0.0 -42.997 0.0 
  0.8866970062255859 6.897890014648437 9.37155029296875 -151.155 81.9961 508.636 1.8229 -7.26383 0.981309 4.00717 -8.57095 1.54972 -42.6738 45.7064 36.992 92.0412 -61.7021 -274.374 -111.668304 -6.97403 -14.8898 10.4318 15.6169 -24.4616 0.0 7.74782 0.0 20.9751 -3.56064 23.5605 0.0 0.0 0.0 0.0 0.0 0.0 108.4426 -4.55452 10.174 -1.85657 -0.669636 53.3137 0.0 12.8721 0.0 -18.8199 -13.8074 -47.5461 0.0 0.0 0.0 0.0 0.0 0.0 1.99949 -6.14908 -3.95105 0.0 5.96928 0.0 -7.26351 4.6427 15.4902 0.0 -37.316 0.0 8.15326 -7.686 1.06784 0.0 10.9687 0.0 9.61897 5.7276697 -15.3337 0.0 -42.7324 0.0 
  0.8865489959716797 6.893599853515625 9.371500244140625 -151.159 81.9946 508.618 1.82973 -7.3424 0.954944 4.01931 -8.56953 1.52131 -42.777 45.7228 37.0474 92.1543 -61.7258 -274.222 -111.6986 -7.03444 -14.9476 10.6153 15.4998 -24.4745 0.0 7.50802 0.0 21.0766 -3.62919 23.8656 0.0 0.0 0.0 0.0 0.0 0.0 108.4656 -4.61901 10.1954 -1.92207 -0.603061 53.3688 0.0 12.8191 0.0 -18.9836 -13.8029 -47.7622 0.0 0.0 0.0 0.0 0.0 0.0 2.00625 -6.10564 -3.85066 0.0 5.93992 0.0 -7.23516 4.651 15.4182 0.0 -37.3242 0.0 8.15043 -7.61741 1.03745 0.0 10.8795 0.0 9.58167 5.8054705 -15.3254 0.0 -42.467102 0.0 
  0.8878170013427734 6.890750122070313 9.371430053710938 -151.319 81.9743 508.753 1.85093 -7.39179 0.939283 4.02499 -8.62906 1.50404 -42.9006 45.7255 37.1449 92.1901 -61.7501 -274.174 -111.75 -7.10187 -15.0259 10.7909 15.4171 -24.5177 0.0 7.2766 0.0 21.2683 -3.69228 23.9848 0.0 0.0 0.0 0.0 0.0 0.0 108.4852 -4.68596 10.2584 -2.01228 -0.544574 53.2813 0.0 12.8021 0.0 -19.2459 -13.9006 -47.7116 0.0 0.0 0.0 0.0 0.0 0.0 1.99179 -6.11413 -3.76417 0.0 5.94213 0.0 -7.22789 4.6433 15.3659 0.0 -37.3272 0.0 8.12894 -7.59977 1.00467 0.0 10.8174 0.0 9.65462 5.8593397 -15.3328 0.0 -42.3031 0.0 
